<svg width="95" height="95" viewBox="0 0 95 95" fill="none" xmlns="http://www.w3.org/2000/svg">
<g id="material-symbols:play-circle">
<path id="Vector" d="M37.604 65.3128L65.3123 47.5003L37.604 29.6878V65.3128ZM47.4998 87.0837C42.0241 87.0837 36.8783 86.0439 32.0623 83.9645C27.2464 81.885 23.0571 79.0654 19.4946 75.5055C15.9321 71.943 13.1125 67.7538 11.0357 62.9378C8.95887 58.1218 7.91914 52.976 7.9165 47.5003C7.9165 42.0246 8.95623 36.8788 11.0357 32.0628C13.1151 27.2469 15.9348 23.0576 19.4946 19.4951C23.0571 15.9326 27.2464 13.113 32.0623 11.0362C36.8783 8.95935 42.0241 7.91963 47.4998 7.91699C52.9755 7.91699 58.1214 8.95671 62.9373 11.0362C67.7533 13.1156 71.9426 15.9353 75.5051 19.4951C79.0676 23.0576 81.8885 27.2469 83.968 32.0628C86.0474 36.8788 87.0858 42.0246 87.0832 47.5003C87.0832 52.976 86.0434 58.1218 83.964 62.9378C81.8846 67.7538 79.0649 71.943 75.5051 75.5055C71.9426 79.068 67.7533 81.889 62.9373 83.9684C58.1214 86.0479 52.9755 87.0863 47.4998 87.0837Z" fill="#BDBDBD" fill-opacity="0.87"/>
</g>
</svg>
