<svg width="27" height="26" viewBox="0 0 27 26" fill="none" xmlns="http://www.w3.org/2000/svg">
<path d="M12.094 0.953177C12.5523 -0.135435 14.1133 -0.135434 14.5717 0.95318L17.2767 7.37836C17.47 7.8373 17.9069 8.15087 18.4084 8.19059L25.4297 8.74669C26.6194 8.84091 27.1017 10.3076 26.1954 11.0746L20.8459 15.6016C20.4638 15.925 20.2968 16.4324 20.4136 16.9158L22.048 23.6847C22.3248 24.8315 21.062 25.7381 20.0435 25.1235L14.0322 21.4961C13.6028 21.237 13.0628 21.237 12.6335 21.4961L6.62216 25.1235C5.60366 25.7381 4.34079 24.8315 4.61769 23.6847L6.25207 16.9158C6.36882 16.4324 6.20194 15.925 5.81985 15.6016L0.470261 11.0746C-0.436112 10.3076 0.0462689 8.84091 1.2359 8.74669L8.25732 8.19059C8.75884 8.15087 9.19572 7.8373 9.38893 7.37836L12.094 0.953177Z" fill="#006B6A"/>
</svg>
